# xmcd CD database file
#
# Track frame offsets:
#	182
#	38007
#	72032
#	108930
#	134002
#
# Disc length: 3056 seconds
#
# Revision: 4
# Processed by: cddbd v1.5.2PL0 Copyright (c) Steve Scherf et al.
# Submitted via: CDex 1.51
#
DISCID=3e0bee05
DTITLE=Egberto Gismonti and Academia De Danças - Sanfona - Disk1
DYEAR=1981
DGENRE=Jazz
TTITLE0=Maracatu
TTITLE1=10 Anos
TTITLE2=Frevo
TTITLE3=Loro
TTITLE4=a) En Familia - b) Sanfona - c) Danca Dos Pes - d) Eterna
EXTD=ECM 1203 YEAR: 1981
EXTT0=
EXTT1=
EXTT2=
EXTT3=
EXTT4=
PLAYORDER=
